# xmcd
#
# Track frame offsets:
# 180
# 15546
# 45121
# 79812
# 104151
# 117681
# 149290
# 162222
# 177631
#
# Disc length: 2586 seconds
#
#
# Revision: 1
# Processed by: cddbd v1.5.1PL0 Copyright (c) Steve Scherf et al.
# Submitted via: FreeRIP 2.90 
#
DISCID=770a1809
DTITLE=Muddy Waters - Mannish Boy
DYEAR=1900
DGENRE=Blues
TTITLE0=Hoochie Coochie Man
TTITLE1=My home is in the delta
TTITLE2=You don't have to go
TTITLE3=I'm a king bee
TTITLE4=Baby please
TTITLE5=Long distance
TTITLE6=Trouble no more
TTITLE7=Got my mojo working
TTITLE8=Mannish boy
EXTD=Muddy waters
EXTT0=
EXTT1=
EXTT2=
EXTT3=
EXTT4=
EXTT5=
EXTT6=
EXTT7=
EXTT8=
PLAYORDER=
